<?xml version="1.0" standalone="no"?><!DOCTYPE svg PUBLIC "-//W3C//DTD SVG 1.1//EN" "http://www.w3.org/Graphics/SVG/1.1/DTD/svg11.dtd"><svg t="1691061292699" class="icon" viewBox="0 0 1024 1024" version="1.1" xmlns="http://www.w3.org/2000/svg" p-id="5949" xmlns:xlink="http://www.w3.org/1999/xlink" width="200" height="200"><path d="M155.794286 365.714286h712.411428a73.142857 73.142857 0 0 1 72.594286 82.029714l-44.763429 365.714286A73.142857 73.142857 0 0 1 823.442286 877.714286H200.557714A73.142857 73.142857 0 0 1 128 813.458286l-44.763429-365.714286A73.142857 73.142857 0 0 1 155.794286 365.714286zM236.251429 146.285714h164.571428a73.142857 73.142857 0 0 1 37.851429 10.532572L512 201.142857h287.085714c28.745143 0 54.308571 18.432 63.378286 45.714286l7.241143 21.650286a18.285714 18.285714 0 0 1-17.371429 24.064H168.777143a18.285714 18.285714 0 0 1-17.92-22.016l13.787428-66.048A73.142857 73.142857 0 0 1 236.251429 146.285714z" fill="#3D4145" p-id="5950"></path></svg>