<?xml version="1.0" standalone="no"?><!DOCTYPE svg PUBLIC "-//W3C//DTD SVG 1.1//EN" "http://www.w3.org/Graphics/SVG/1.1/DTD/svg11.dtd"><svg t="1691061123487" class="icon" viewBox="0 0 1024 1024" version="1.1" xmlns="http://www.w3.org/2000/svg" p-id="2894" xmlns:xlink="http://www.w3.org/1999/xlink" width="200" height="200"><path d="M405.065143 156.818286l102.838857 102.887619h323.681524c20.138667 0 36.668952 16.530286 36.668952 36.668952v543.012572c0 20.138667-16.579048 36.668952-36.668952 36.668952H97.913905a36.815238 36.815238 0 0 1-36.668953-36.668952V193.487238c0-20.138667 16.579048-36.668952 36.668953-36.668952h307.151238z m104.691809 224.548571a48.274286 48.274286 0 0 1-45.007238 31.012572 48.225524 48.225524 0 0 1-45.007238-31.012572 180.516571 180.516571 0 0 0-47.640381 19.69981 48.176762 48.176762 0 0 1-63.634285 63.634285c-8.777143 14.726095-15.408762 30.72-19.748572 47.689143a48.274286 48.274286 0 0 1 31.061333 44.958476c0 20.626286-12.921905 38.034286-31.061333 45.007239 4.33981 16.969143 11.02019 32.963048 19.748572 47.64038a48.128 48.128 0 0 1 63.585523 63.683048c14.726095 8.728381 30.72 15.408762 47.689143 19.69981a48.274286 48.274286 0 0 1 45.007238-31.012572c20.577524 0 38.034286 12.921905 45.007238 31.012572 16.969143-4.291048 32.963048-10.971429 47.640381-19.69981a48.176762 48.176762 0 0 1 63.585524-63.683048c8.777143-14.677333 15.457524-30.671238 19.797333-47.64038a48.225524 48.225524 0 0 1 0-89.965715 180.516571 180.516571 0 0 0-19.748571-47.689143 48.128 48.128 0 0 1-63.585524-63.634285 181.345524 181.345524 0 0 0-47.689143-19.69981zM467.626667 484.693333a75.580952 75.580952 0 1 1 0 151.161905 75.580952 75.580952 0 0 1 0-151.161905z" p-id="2895"></path></svg>